<svg xmlns="http://www.w3.org/2000/svg" xmlns:xlink="http://www.w3.org/1999/xlink" width="500" zoomAndPan="magnify" viewBox="0 0 375 374.999991" height="500" preserveAspectRatio="xMidYMid meet" version="1.0"><defs><clipPath id="d74f4fed8f"><path d="M 154.222656 141.546875 L 220.972656 141.546875 L 220.972656 233.796875 L 154.222656 233.796875 Z M 154.222656 141.546875 " clip-rule="nonzero"/></clipPath></defs><path fill="#fdfdfd" d="M 197.980469 157.84375 L 197.980469 155.835938 L 189.128906 155.835938 L 189.128906 157.84375 L 197.980469 157.84375 " fill-opacity="1" fill-rule="nonzero"/><path fill="#fdfdfd" d="M 197.980469 162.351562 L 197.980469 160.523438 L 189.128906 160.523438 L 189.128906 162.351562 L 197.980469 162.351562 " fill-opacity="1" fill-rule="nonzero"/><path fill="#fdfdfd" d="M 197.980469 166.855469 L 197.980469 165.035156 L 189.128906 165.035156 L 189.128906 166.855469 L 197.980469 166.855469 " fill-opacity="1" fill-rule="nonzero"/><path fill="#fdfdfd" d="M 197.980469 171.359375 L 197.980469 169.539062 L 189.128906 169.539062 L 189.128906 171.359375 L 197.980469 171.359375 " fill-opacity="1" fill-rule="nonzero"/><path fill="#fdfdfd" d="M 197.980469 175.871094 L 197.980469 174.046875 L 189.128906 174.046875 L 189.128906 175.871094 L 197.980469 175.871094 " fill-opacity="1" fill-rule="nonzero"/><g clip-path="url(#d74f4fed8f)"><path fill="#fdfdfd" d="M 180.117188 150.636719 L 180.117188 158.363281 L 172.378906 158.363281 L 172.378906 150.636719 Z M 217.289062 151.878906 L 217.289062 153.878906 L 206.242188 153.878906 L 206.242188 151.878906 Z M 217.289062 160.523438 L 217.289062 162.535156 L 206.242188 162.535156 L 206.242188 160.523438 Z M 217.289062 169.179688 L 217.289062 171.1875 L 206.242188 171.1875 L 206.242188 169.179688 Z M 217.289062 177.835938 L 217.289062 179.84375 L 206.242188 179.84375 L 206.242188 177.835938 Z M 217.289062 186.492188 L 217.289062 188.5 L 206.242188 188.5 L 206.242188 186.492188 Z M 217.289062 195.140625 L 217.289062 197.144531 L 206.242188 197.144531 L 206.242188 195.140625 Z M 200.664062 227.960938 L 186.445312 227.960938 L 186.445312 153.15625 L 200.664062 153.15625 Z M 217.8125 218.222656 L 217.8125 220.578125 L 205.71875 220.578125 L 205.71875 218.222656 Z M 173.621094 218.058594 L 173.621094 215.617188 L 170.941406 215.617188 L 170.941406 218.058594 L 169.476562 218.058594 L 169.476562 215.617188 L 166.792969 215.617188 L 166.792969 218.058594 L 165.332031 218.058594 L 165.332031 215.617188 L 162.652344 215.617188 L 162.652344 218.058594 L 161.1875 218.058594 L 161.1875 215.617188 L 158.503906 215.617188 L 158.503906 218.058594 L 156.855469 218.058594 L 156.855469 209.207031 L 174.902344 209.207031 L 174.902344 218.058594 Z M 159.039062 195.140625 L 159.039062 187.414062 L 166.773438 187.414062 L 166.773438 195.140625 Z M 168.421875 182.519531 L 168.421875 162.898438 L 185.523438 162.898438 L 185.523438 182.519531 Z M 171.101562 145.128906 L 171.101562 141.441406 L 161.917969 141.441406 C 157.640625 141.441406 154.171875 144.914062 154.171875 149.175781 C 154.171875 156.964844 154.171875 217.855469 154.171875 225.800781 C 154.171875 230.070312 157.640625 233.550781 161.917969 233.550781 L 171.101562 233.550781 L 171.101562 229.863281 C 171.101562 228.300781 173.460938 228.300781 173.460938 229.863281 L 173.460938 233.550781 L 212.929688 233.550781 C 217.164062 233.550781 220.679688 230.105469 220.679688 225.800781 L 220.679688 208.6875 C 220.273438 208.6875 217.207031 208.75 216.84375 208.589844 C 215.8125 208.132812 215.980469 206.316406 217.351562 206.316406 L 220.679688 206.316406 L 220.679688 149.175781 C 220.679688 144.902344 217.195312 141.441406 212.929688 141.441406 L 200.503906 141.441406 L 200.503906 145.128906 C 200.503906 146.691406 198.140625 146.691406 198.140625 145.128906 L 198.140625 141.441406 L 173.460938 141.441406 L 173.460938 145.128906 C 173.460938 146.691406 171.101562 146.691406 171.101562 145.128906 " fill-opacity="1" fill-rule="nonzero"/></g><path fill="#fdfdfd" d="M 175.0625 153.316406 L 175.0625 155.679688 L 177.433594 155.679688 L 177.433594 153.316406 L 175.0625 153.316406 " fill-opacity="1" fill-rule="nonzero"/><path fill="#fdfdfd" d="M 182.839844 179.84375 L 182.839844 178.550781 L 174.269531 178.550781 L 174.269531 175.871094 L 182.839844 175.871094 L 182.839844 174.046875 L 174.269531 174.046875 L 174.269531 171.359375 L 182.839844 171.359375 L 182.839844 169.539062 L 174.269531 169.539062 L 174.269531 166.855469 L 182.839844 166.855469 L 182.839844 165.574219 L 171.101562 165.574219 L 171.101562 179.84375 L 182.839844 179.84375 " fill-opacity="1" fill-rule="nonzero"/><path fill="#fdfdfd" d="M 197.980469 180.378906 L 197.980469 178.550781 L 189.128906 178.550781 L 189.128906 180.378906 L 197.980469 180.378906 " fill-opacity="1" fill-rule="nonzero"/><path fill="#fdfdfd" d="M 197.980469 184.894531 L 197.980469 183.058594 L 189.128906 183.058594 L 189.128906 184.894531 L 197.980469 184.894531 " fill-opacity="1" fill-rule="nonzero"/><path fill="#fdfdfd" d="M 197.980469 189.402344 L 197.980469 187.574219 L 189.128906 187.574219 L 189.128906 189.402344 L 197.980469 189.402344 " fill-opacity="1" fill-rule="nonzero"/><path fill="#fdfdfd" d="M 164.089844 192.457031 L 164.089844 190.09375 L 161.722656 190.09375 L 161.722656 192.457031 L 164.089844 192.457031 " fill-opacity="1" fill-rule="nonzero"/><path fill="#fdfdfd" d="M 197.980469 193.90625 L 197.980469 192.078125 L 189.128906 192.078125 L 189.128906 193.90625 L 197.980469 193.90625 " fill-opacity="1" fill-rule="nonzero"/><path fill="#fdfdfd" d="M 197.980469 198.410156 L 197.980469 196.589844 L 189.128906 196.589844 L 189.128906 198.410156 L 197.980469 198.410156 " fill-opacity="1" fill-rule="nonzero"/><path fill="#fdfdfd" d="M 197.980469 202.917969 L 197.980469 201.097656 L 189.128906 201.097656 L 189.128906 202.917969 L 197.980469 202.917969 " fill-opacity="1" fill-rule="nonzero"/><path fill="#fdfdfd" d="M 197.980469 207.429688 L 197.980469 205.601562 L 189.128906 205.601562 L 189.128906 207.429688 L 197.980469 207.429688 " fill-opacity="1" fill-rule="nonzero"/><path fill="#fdfdfd" d="M 197.980469 211.933594 L 197.980469 210.109375 L 189.128906 210.109375 L 189.128906 211.933594 L 197.980469 211.933594 " fill-opacity="1" fill-rule="nonzero"/><path fill="#fdfdfd" d="M 197.980469 216.441406 L 197.980469 214.617188 L 189.128906 214.617188 L 189.128906 216.441406 L 197.980469 216.441406 " fill-opacity="1" fill-rule="nonzero"/><path fill="#fdfdfd" d="M 197.980469 220.945312 L 197.980469 219.125 L 189.128906 219.125 L 189.128906 220.945312 L 197.980469 220.945312 " fill-opacity="1" fill-rule="nonzero"/><path fill="#fdfdfd" d="M 197.980469 225.277344 L 197.980469 223.628906 L 189.128906 223.628906 L 189.128906 225.277344 L 197.980469 225.277344 " fill-opacity="1" fill-rule="nonzero"/></svg>